<?xml version="1.0" encoding="UTF-8" standalone="no"?>
<!DOCTYPE svg PUBLIC "-//W3C//DTD SVG 1.1//EN"
 "http://www.w3.org/Graphics/SVG/1.1/DTD/svg11.dtd">
<!-- Generated by graphviz version 2.40.1 (20161225.0304)
 -->
<!-- Title: isuports Pages: 1 -->
<svg width="1001pt" height="279pt"
 viewBox="0.00 0.00 1000.50 279.00" xmlns="http://www.w3.org/2000/svg" xmlns:xlink="http://www.w3.org/1999/xlink">
<g id="graph0" class="graph" transform="scale(1 1) rotate(0) translate(4 275)">
<title>isuports</title>
<polygon fill="#ffffff" stroke="transparent" points="-4,4 -4,-275 996.5,-275 996.5,4 -4,4"/>
<!-- id_generator -->
<g id="node1" class="node">
<title>id_generator</title>
<polygon fill="#efefef" stroke="transparent" points="43,-147.5 43,-182.5 285,-182.5 285,-147.5 43,-147.5"/>
<polygon fill="none" stroke="#000000" points="43,-147.5 43,-182.5 285,-182.5 285,-147.5 43,-147.5"/>
<text text-anchor="start" x="49.7008" y="-160.3" font-family="Arial Bold" font-size="18.00" fill="#000000">id_generator</text>
<text text-anchor="start" x="150.7312" y="-160.3" font-family="Arial" font-size="14.00" fill="#000000">    </text>
<text text-anchor="start" x="184.936" y="-160.3" font-family="Arial" font-size="14.00" fill="#666666">[BASE TABLE]</text>
<polygon fill="none" stroke="#000000" points="43,-117.5 43,-147.5 285,-147.5 285,-117.5 43,-117.5"/>
<text text-anchor="start" x="50" y="-128.9" font-family="Arial" font-size="14.00" fill="#000000">id    </text>
<text text-anchor="start" x="95.094" y="-128.9" font-family="Arial" font-size="14.00" fill="#666666">[bigint]</text>
<polygon fill="none" stroke="#000000" points="43,-87.5 43,-117.5 285,-117.5 285,-87.5 43,-87.5"/>
<text text-anchor="start" x="50" y="-98.9" font-family="Arial" font-size="14.00" fill="#000000">stub    </text>
<text text-anchor="start" x="110.6606" y="-98.9" font-family="Arial" font-size="14.00" fill="#666666">[char(1)]</text>
</g>
<!-- tenant -->
<g id="node2" class="node">
<title>tenant</title>
<polygon fill="#efefef" stroke="transparent" points="390,-192.5 390,-227.5 611,-227.5 611,-192.5 390,-192.5"/>
<polygon fill="none" stroke="#000000" points="390,-192.5 390,-227.5 611,-227.5 611,-192.5 390,-192.5"/>
<text text-anchor="start" x="411.7014" y="-205.3" font-family="Arial Bold" font-size="18.00" fill="#000000">tenant</text>
<text text-anchor="start" x="461.7306" y="-205.3" font-family="Arial" font-size="14.00" fill="#000000">    </text>
<text text-anchor="start" x="495.9354" y="-205.3" font-family="Arial" font-size="14.00" fill="#666666">[BASE TABLE]</text>
<polygon fill="none" stroke="#000000" points="390,-162.5 390,-192.5 611,-192.5 611,-162.5 390,-162.5"/>
<text text-anchor="start" x="397" y="-173.9" font-family="Arial" font-size="14.00" fill="#000000">id    </text>
<text text-anchor="start" x="442.094" y="-173.9" font-family="Arial" font-size="14.00" fill="#666666">[bigint]</text>
<polygon fill="none" stroke="#000000" points="390,-132.5 390,-162.5 611,-162.5 611,-132.5 390,-132.5"/>
<text text-anchor="start" x="397" y="-143.9" font-family="Arial" font-size="14.00" fill="#000000">name    </text>
<text text-anchor="start" x="466.2132" y="-143.9" font-family="Arial" font-size="14.00" fill="#666666">[varchar(255)]</text>
<polygon fill="none" stroke="#000000" points="390,-102.5 390,-132.5 611,-132.5 611,-102.5 390,-102.5"/>
<text text-anchor="start" x="396.662" y="-113.9" font-family="Arial" font-size="14.00" fill="#000000">display_name    </text>
<text text-anchor="start" x="517.2188" y="-113.9" font-family="Arial" font-size="14.00" fill="#666666">[varchar(255)]</text>
<polygon fill="none" stroke="#000000" points="390,-72.5 390,-102.5 611,-102.5 611,-72.5 390,-72.5"/>
<text text-anchor="start" x="397" y="-83.9" font-family="Arial" font-size="14.00" fill="#000000">created_at    </text>
<text text-anchor="start" x="497.3422" y="-83.9" font-family="Arial" font-size="14.00" fill="#666666">[bigint]</text>
<polygon fill="none" stroke="#000000" points="390,-42.5 390,-72.5 611,-72.5 611,-42.5 390,-42.5"/>
<text text-anchor="start" x="397" y="-53.9" font-family="Arial" font-size="14.00" fill="#000000">updated_at    </text>
<text text-anchor="start" x="501.2468" y="-53.9" font-family="Arial" font-size="14.00" fill="#666666">[bigint]</text>
</g>
<!-- visit_history -->
<g id="node3" class="node">
<title>visit_history</title>
<polygon fill="#efefef" stroke="transparent" points="715,-192.5 715,-227.5 950,-227.5 950,-192.5 715,-192.5"/>
<polygon fill="none" stroke="#000000" points="715,-192.5 715,-227.5 950,-227.5 950,-192.5 715,-192.5"/>
<text text-anchor="start" x="721.7171" y="-205.3" font-family="Arial Bold" font-size="18.00" fill="#000000">visit_history</text>
<text text-anchor="start" x="815.7149" y="-205.3" font-family="Arial" font-size="14.00" fill="#000000">    </text>
<text text-anchor="start" x="849.9197" y="-205.3" font-family="Arial" font-size="14.00" fill="#666666">[BASE TABLE]</text>
<polygon fill="none" stroke="#000000" points="715,-162.5 715,-192.5 950,-192.5 950,-162.5 715,-162.5"/>
<text text-anchor="start" x="722" y="-173.9" font-family="Arial" font-size="14.00" fill="#000000">player_id    </text>
<text text-anchor="start" x="812.9916" y="-173.9" font-family="Arial" font-size="14.00" fill="#666666">[varchar(255)]</text>
<polygon fill="none" stroke="#000000" points="715,-132.5 715,-162.5 950,-162.5 950,-132.5 715,-132.5"/>
<text text-anchor="start" x="722" y="-143.9" font-family="Arial" font-size="14.00" fill="#000000">tenant_id    </text>
<text text-anchor="start" x="813.7882" y="-143.9" font-family="Arial" font-size="14.00" fill="#666666">[bigint unsigned]</text>
<polygon fill="none" stroke="#000000" points="715,-102.5 715,-132.5 950,-132.5 950,-102.5 715,-102.5"/>
<text text-anchor="start" x="722" y="-113.9" font-family="Arial" font-size="14.00" fill="#000000">competition_id    </text>
<text text-anchor="start" x="846.4446" y="-113.9" font-family="Arial" font-size="14.00" fill="#666666">[varchar(255)]</text>
<polygon fill="none" stroke="#000000" points="715,-72.5 715,-102.5 950,-102.5 950,-72.5 715,-72.5"/>
<text text-anchor="start" x="722" y="-83.9" font-family="Arial" font-size="14.00" fill="#000000">created_at    </text>
<text text-anchor="start" x="822.3422" y="-83.9" font-family="Arial" font-size="14.00" fill="#666666">[bigint]</text>
<polygon fill="none" stroke="#000000" points="715,-42.5 715,-72.5 950,-72.5 950,-42.5 715,-42.5"/>
<text text-anchor="start" x="722" y="-53.9" font-family="Arial" font-size="14.00" fill="#000000">updated_at    </text>
<text text-anchor="start" x="826.2468" y="-53.9" font-family="Arial" font-size="14.00" fill="#666666">[bigint]</text>
</g>
</g>
</svg>
